<svg id="visual" viewBox="0 0 900 600" width="900" height="600" xmlns="http://www.w3.org/2000/svg" xmlns:xlink="http://www.w3.org/1999/xlink" version="1.1"><rect x="0" y="0" width="900" height="600" fill="#6d67e4"></rect><g transform="translate(943.025068858766 754.0811307881509)"><path d="M493.3 -610.1C601 -497.6 623.5 -305.8 639.7 -125.8C655.9 54.1 665.7 222 584.1 312.6C502.4 403.1 329.4 416.3 191.1 421.8C52.9 427.3 -50.5 425.1 -203 426.5C-355.5 427.9 -557.1 433 -656.8 340.4C-756.6 247.8 -754.5 57.6 -697.2 -97.9C-640 -253.4 -527.6 -374.1 -402.2 -483.5C-276.8 -592.9 -138.4 -691 27.2 -723.4C192.8 -755.8 385.7 -722.6 493.3 -610.1" fill="#5750de"></path></g></svg>