<svg id="visual" viewBox="0 0 960 540" width="960" height="540" xmlns="http://www.w3.org/2000/svg" xmlns:xlink="http://www.w3.org/1999/xlink" version="1.1"><rect x="0" y="0" width="960" height="540" fill="#ffffff"></rect><defs><linearGradient id="grad1_0" x1="43.8%" y1="0%" x2="100%" y2="100%"><stop offset="14.444444444444446%" stop-color="#ffffff" stop-opacity="1"></stop><stop offset="85.55555555555554%" stop-color="#ffffff" stop-opacity="1"></stop></linearGradient></defs><defs><linearGradient id="grad2_0" x1="0%" y1="0%" x2="56.3%" y2="100%"><stop offset="14.444444444444446%" stop-color="#ffffff" stop-opacity="1"></stop><stop offset="85.55555555555554%" stop-color="#ffffff" stop-opacity="1"></stop></linearGradient></defs><g transform="translate(960, 0)"><path d="M0 351C-44.1 344.1 -88.2 337.2 -133.6 322.4C-178.9 307.6 -225.5 284.9 -248.2 248.2C-270.9 211.5 -269.6 160.8 -282.7 117.1C-295.8 73.4 -323.4 36.7 -351 0L0 0Z" fill="#ececec"></path></g><g transform="translate(0, 540)"><path d="M0 -351C39.5 -331.6 79.1 -312.1 123.6 -298.4C168.2 -284.7 217.7 -276.7 248.2 -248.2C278.7 -219.7 290 -170.7 304 -125.9C317.9 -81.1 334.5 -40.6 351 0L0 0Z" fill="#ececec"></path></g></svg>